<?xml version="1.0" encoding="UTF-8"?>
<!DOCTYPE svg PUBLIC "-//W3C//DTD SVG 1.1//EN" "http://www.w3.org/Graphics/SVG/1.1/DTD/svg11.dtd">
<svg width="190mm" height="107mm" viewBox="0 0 19000 10700" version="1.1" baseProfile="tiny" xmlns="http://www.w3.org/2000/svg" stroke-width="28.222" stroke-linejoin="round" xml:space="preserve">
 <path fill="rgb(255,255,255)" stroke="none" d="M 9510,10603 L 0,10603 0,-60 19020,-60 19020,10603 9510,10603 Z"/>
 <path fill="none" stroke="rgb(179,179,179)" stroke-linejoin="round" d="M 9946,8378 L 1914,8378 1914,151 17978,151 17978,8378 9946,8378 Z"/>
 <path fill="none" stroke="rgb(179,179,179)" stroke-linejoin="round" d="M 17978,8377 L 1914,8377"/>
 <path fill="none" stroke="rgb(179,179,179)" stroke-linejoin="round" d="M 17978,7555 L 1914,7555"/>
 <path fill="none" stroke="rgb(179,179,179)" stroke-linejoin="round" d="M 17978,6732 L 1914,6732"/>
 <path fill="none" stroke="rgb(179,179,179)" stroke-linejoin="round" d="M 17978,5909 L 1914,5909"/>
 <path fill="none" stroke="rgb(179,179,179)" stroke-linejoin="round" d="M 17978,5086 L 1914,5086"/>
 <path fill="none" stroke="rgb(179,179,179)" stroke-linejoin="round" d="M 17978,4263 L 1914,4263"/>
 <path fill="none" stroke="rgb(179,179,179)" stroke-linejoin="round" d="M 17978,3440 L 1914,3440"/>
 <path fill="none" stroke="rgb(179,179,179)" stroke-linejoin="round" d="M 17978,2617 L 1914,2617"/>
 <path fill="none" stroke="rgb(179,179,179)" stroke-linejoin="round" d="M 17978,1795 L 1914,1795"/>
 <path fill="none" stroke="rgb(179,179,179)" stroke-linejoin="round" d="M 17978,972 L 1914,972"/>
 <path fill="none" stroke="rgb(179,179,179)" stroke-linejoin="round" d="M 17978,150 L 1914,150"/>
 <path fill="none" stroke="rgb(179,179,179)" stroke-linejoin="round" d="M 1914,8527 L 1914,8377"/>
 <path fill="none" stroke="rgb(179,179,179)" stroke-linejoin="round" d="M 2679,8527 L 2679,8377"/>
 <path fill="none" stroke="rgb(179,179,179)" stroke-linejoin="round" d="M 3444,8527 L 3444,8377"/>
 <path fill="none" stroke="rgb(179,179,179)" stroke-linejoin="round" d="M 4209,8527 L 4209,8377"/>
 <path fill="none" stroke="rgb(179,179,179)" stroke-linejoin="round" d="M 4974,8527 L 4974,8377"/>
 <path fill="none" stroke="rgb(179,179,179)" stroke-linejoin="round" d="M 5739,8527 L 5739,8377"/>
 <path fill="none" stroke="rgb(179,179,179)" stroke-linejoin="round" d="M 6504,8527 L 6504,8377"/>
 <path fill="none" stroke="rgb(179,179,179)" stroke-linejoin="round" d="M 7269,8527 L 7269,8377"/>
 <path fill="none" stroke="rgb(179,179,179)" stroke-linejoin="round" d="M 8034,8527 L 8034,8377"/>
 <path fill="none" stroke="rgb(179,179,179)" stroke-linejoin="round" d="M 8799,8527 L 8799,8377"/>
 <path fill="none" stroke="rgb(179,179,179)" stroke-linejoin="round" d="M 9563,8527 L 9563,8377"/>
 <path fill="none" stroke="rgb(179,179,179)" stroke-linejoin="round" d="M 10327,8527 L 10327,8377"/>
 <path fill="none" stroke="rgb(179,179,179)" stroke-linejoin="round" d="M 11093,8527 L 11093,8377"/>
 <path fill="none" stroke="rgb(179,179,179)" stroke-linejoin="round" d="M 11858,8527 L 11858,8377"/>
 <path fill="none" stroke="rgb(179,179,179)" stroke-linejoin="round" d="M 12623,8527 L 12623,8377"/>
 <path fill="none" stroke="rgb(179,179,179)" stroke-linejoin="round" d="M 13387,8527 L 13387,8377"/>
 <path fill="none" stroke="rgb(179,179,179)" stroke-linejoin="round" d="M 14153,8527 L 14153,8377"/>
 <path fill="none" stroke="rgb(179,179,179)" stroke-linejoin="round" d="M 14918,8527 L 14918,8377"/>
 <path fill="none" stroke="rgb(179,179,179)" stroke-linejoin="round" d="M 15683,8527 L 15683,8377"/>
 <path fill="none" stroke="rgb(179,179,179)" stroke-linejoin="round" d="M 16448,8527 L 16448,8377"/>
 <path fill="none" stroke="rgb(179,179,179)" stroke-linejoin="round" d="M 17213,8527 L 17213,8377"/>
 <path fill="none" stroke="rgb(179,179,179)" stroke-linejoin="round" d="M 17978,8527 L 17978,8377"/>
 <path fill="none" stroke="rgb(179,179,179)" stroke-linejoin="round" d="M 1914,8377 L 17978,8377"/>
 <path fill="none" stroke="rgb(179,179,179)" stroke-linejoin="round" d="M 1764,8377 L 1914,8377"/>
 <path fill="none" stroke="rgb(179,179,179)" stroke-linejoin="round" d="M 1764,7555 L 1914,7555"/>
 <path fill="none" stroke="rgb(179,179,179)" stroke-linejoin="round" d="M 1764,6732 L 1914,6732"/>
 <path fill="none" stroke="rgb(179,179,179)" stroke-linejoin="round" d="M 1764,5909 L 1914,5909"/>
 <path fill="none" stroke="rgb(179,179,179)" stroke-linejoin="round" d="M 1764,5086 L 1914,5086"/>
 <path fill="none" stroke="rgb(179,179,179)" stroke-linejoin="round" d="M 1764,4263 L 1914,4263"/>
 <path fill="none" stroke="rgb(179,179,179)" stroke-linejoin="round" d="M 1764,3440 L 1914,3440"/>
 <path fill="none" stroke="rgb(179,179,179)" stroke-linejoin="round" d="M 1764,2617 L 1914,2617"/>
 <path fill="none" stroke="rgb(179,179,179)" stroke-linejoin="round" d="M 1764,1795 L 1914,1795"/>
 <path fill="none" stroke="rgb(179,179,179)" stroke-linejoin="round" d="M 1764,972 L 1914,972"/>
 <path fill="none" stroke="rgb(179,179,179)" stroke-linejoin="round" d="M 1764,150 L 1914,150"/>
 <path fill="none" stroke="rgb(179,179,179)" stroke-linejoin="round" d="M 1914,8377 L 1914,150"/>
 <path fill="none" stroke="rgb(0,69,134)" stroke-width="80" stroke-linejoin="round" d="M 1914,8078 L 2679,8311 3444,8224 4209,8243 4974,8240 5739,8178 6504,8119 7269,7974 8034,7974 8799,7459 9563,7242 10328,7010 11093,7788 11858,7909 12623,8083 13388,8069 14153,8154 14918,8167 15683,8227 16448,8297 17213,8212 17978,8103"/>
 <path fill="rgb(0,69,134)" stroke="none" d="M 1773,7938 L 1773,8219 2055,8219 2055,7938 1773,7938 Z"/>
 <path fill="none" stroke="rgb(0,69,134)" stroke-linejoin="round" d="M 1773,7938 L 1773,8219 2055,8219 2055,7938 1773,7938 Z"/>
 <path fill="rgb(0,69,134)" stroke="none" d="M 2538,8170 L 2538,8452 2820,8452 2820,8170 2538,8170 Z"/>
 <path fill="none" stroke="rgb(0,69,134)" stroke-linejoin="round" d="M 2538,8170 L 2538,8452 2820,8452 2820,8170 2538,8170 Z"/>
 <path fill="rgb(0,69,134)" stroke="none" d="M 3303,8083 L 3303,8365 3585,8365 3585,8083 3303,8083 Z"/>
 <path fill="none" stroke="rgb(0,69,134)" stroke-linejoin="round" d="M 3303,8083 L 3303,8365 3585,8365 3585,8083 3303,8083 Z"/>
 <path fill="rgb(0,69,134)" stroke="none" d="M 4068,8102 L 4068,8384 4350,8384 4350,8102 4068,8102 Z"/>
 <path fill="none" stroke="rgb(0,69,134)" stroke-linejoin="round" d="M 4068,8102 L 4068,8384 4350,8384 4350,8102 4068,8102 Z"/>
 <path fill="rgb(0,69,134)" stroke="none" d="M 4833,8099 L 4833,8381 5115,8381 5115,8099 4833,8099 Z"/>
 <path fill="none" stroke="rgb(0,69,134)" stroke-linejoin="round" d="M 4833,8099 L 4833,8381 5115,8381 5115,8099 4833,8099 Z"/>
 <path fill="rgb(0,69,134)" stroke="none" d="M 5598,8037 L 5598,8319 5880,8319 5880,8037 5598,8037 Z"/>
 <path fill="none" stroke="rgb(0,69,134)" stroke-linejoin="round" d="M 5598,8037 L 5598,8319 5880,8319 5880,8037 5598,8037 Z"/>
 <path fill="rgb(0,69,134)" stroke="none" d="M 6363,7978 L 6363,8260 6645,8260 6645,7978 6363,7978 Z"/>
 <path fill="none" stroke="rgb(0,69,134)" stroke-linejoin="round" d="M 6363,7978 L 6363,8260 6645,8260 6645,7978 6363,7978 Z"/>
 <path fill="rgb(0,69,134)" stroke="none" d="M 7128,7834 L 7128,8115 7410,8115 7410,7834 7128,7834 Z"/>
 <path fill="none" stroke="rgb(0,69,134)" stroke-linejoin="round" d="M 7128,7834 L 7128,8115 7410,8115 7410,7834 7128,7834 Z"/>
 <path fill="rgb(0,69,134)" stroke="none" d="M 7893,7834 L 7893,8115 8175,8115 8175,7834 7893,7834 Z"/>
 <path fill="none" stroke="rgb(0,69,134)" stroke-linejoin="round" d="M 7893,7834 L 7893,8115 8175,8115 8175,7834 7893,7834 Z"/>
 <path fill="rgb(0,69,134)" stroke="none" d="M 8658,7318 L 8658,7600 8940,7600 8940,7318 8658,7318 Z"/>
 <path fill="none" stroke="rgb(0,69,134)" stroke-linejoin="round" d="M 8658,7318 L 8658,7600 8940,7600 8940,7318 8658,7318 Z"/>
 <path fill="rgb(0,69,134)" stroke="none" d="M 9423,7101 L 9423,7383 9704,7383 9704,7101 9423,7101 Z"/>
 <path fill="none" stroke="rgb(0,69,134)" stroke-linejoin="round" d="M 9423,7101 L 9423,7383 9704,7383 9704,7101 9423,7101 Z"/>
 <path fill="rgb(0,69,134)" stroke="none" d="M 10187,6869 L 10187,7151 10469,7151 10469,6869 10187,6869 Z"/>
 <path fill="none" stroke="rgb(0,69,134)" stroke-linejoin="round" d="M 10187,6869 L 10187,7151 10469,7151 10469,6869 10187,6869 Z"/>
 <path fill="rgb(0,69,134)" stroke="none" d="M 10952,7647 L 10952,7929 11234,7929 11234,7647 10952,7647 Z"/>
 <path fill="none" stroke="rgb(0,69,134)" stroke-linejoin="round" d="M 10952,7647 L 10952,7929 11234,7929 11234,7647 10952,7647 Z"/>
 <path fill="rgb(0,69,134)" stroke="none" d="M 11717,7768 L 11717,8049 11999,8049 11999,7768 11717,7768 Z"/>
 <path fill="none" stroke="rgb(0,69,134)" stroke-linejoin="round" d="M 11717,7768 L 11717,8049 11999,8049 11999,7768 11717,7768 Z"/>
 <path fill="rgb(0,69,134)" stroke="none" d="M 12482,7942 L 12482,8224 12764,8224 12764,7942 12482,7942 Z"/>
 <path fill="none" stroke="rgb(0,69,134)" stroke-linejoin="round" d="M 12482,7942 L 12482,8224 12764,8224 12764,7942 12482,7942 Z"/>
 <path fill="rgb(0,69,134)" stroke="none" d="M 13247,7929 L 13247,8210 13529,8210 13529,7929 13247,7929 Z"/>
 <path fill="none" stroke="rgb(0,69,134)" stroke-linejoin="round" d="M 13247,7929 L 13247,8210 13529,8210 13529,7929 13247,7929 Z"/>
 <path fill="rgb(0,69,134)" stroke="none" d="M 14012,8013 L 14012,8295 14294,8295 14294,8013 14012,8013 Z"/>
 <path fill="none" stroke="rgb(0,69,134)" stroke-linejoin="round" d="M 14012,8013 L 14012,8295 14294,8295 14294,8013 14012,8013 Z"/>
 <path fill="rgb(0,69,134)" stroke="none" d="M 14777,8026 L 14777,8308 15059,8308 15059,8026 14777,8026 Z"/>
 <path fill="none" stroke="rgb(0,69,134)" stroke-linejoin="round" d="M 14777,8026 L 14777,8308 15059,8308 15059,8026 14777,8026 Z"/>
 <path fill="rgb(0,69,134)" stroke="none" d="M 15542,8086 L 15542,8368 15824,8368 15824,8086 15542,8086 Z"/>
 <path fill="none" stroke="rgb(0,69,134)" stroke-linejoin="round" d="M 15542,8086 L 15542,8368 15824,8368 15824,8086 15542,8086 Z"/>
 <path fill="rgb(0,69,134)" stroke="none" d="M 16307,8156 L 16307,8438 16589,8438 16589,8156 16307,8156 Z"/>
 <path fill="none" stroke="rgb(0,69,134)" stroke-linejoin="round" d="M 16307,8156 L 16307,8438 16589,8438 16589,8156 16307,8156 Z"/>
 <path fill="rgb(0,69,134)" stroke="none" d="M 17072,8071 L 17072,8353 17354,8353 17354,8071 17072,8071 Z"/>
 <path fill="none" stroke="rgb(0,69,134)" stroke-linejoin="round" d="M 17072,8071 L 17072,8353 17354,8353 17354,8071 17072,8071 Z"/>
 <path fill="rgb(0,69,134)" stroke="none" d="M 17837,7962 L 17837,8244 18119,8244 18119,7962 17837,7962 Z"/>
 <path fill="none" stroke="rgb(0,69,134)" stroke-linejoin="round" d="M 17837,7962 L 17837,8244 18119,8244 18119,7962 17837,7962 Z"/>
 <path fill="none" stroke="rgb(255,66,14)" stroke-width="80" stroke-linejoin="round" d="M 1914,8360 L 2679,8373 3444,8370 4209,8368 4974,8365 5739,8360 6504,8354 7269,8344 8034,8322 8799,8274 9563,1220 10328,7855 11093,8272 11858,8322 12623,8343 13388,8353 14153,8361 14918,8365 15683,8369 16448,8371 17213,8373 17978,8361"/>
 <path fill="rgb(255,66,14)" stroke="none" d="M 1773,8360 L 1914,8501 2055,8360 1914,8219 1773,8360 Z"/>
 <path fill="none" stroke="rgb(255,66,14)" stroke-linejoin="round" d="M 1773,8360 L 1914,8501 2055,8360 1914,8219 1773,8360 Z"/>
 <path fill="rgb(255,66,14)" stroke="none" d="M 2538,8373 L 2679,8514 2820,8373 2679,8232 2538,8373 Z"/>
 <path fill="none" stroke="rgb(255,66,14)" stroke-linejoin="round" d="M 2538,8373 L 2679,8514 2820,8373 2679,8232 2538,8373 Z"/>
 <path fill="rgb(255,66,14)" stroke="none" d="M 3303,8370 L 3444,8511 3585,8370 3444,8229 3303,8370 Z"/>
 <path fill="none" stroke="rgb(255,66,14)" stroke-linejoin="round" d="M 3303,8370 L 3444,8511 3585,8370 3444,8229 3303,8370 Z"/>
 <path fill="rgb(255,66,14)" stroke="none" d="M 4068,8368 L 4209,8509 4350,8368 4209,8227 4068,8368 Z"/>
 <path fill="none" stroke="rgb(255,66,14)" stroke-linejoin="round" d="M 4068,8368 L 4209,8509 4350,8368 4209,8227 4068,8368 Z"/>
 <path fill="rgb(255,66,14)" stroke="none" d="M 4833,8365 L 4974,8506 5115,8365 4974,8224 4833,8365 Z"/>
 <path fill="none" stroke="rgb(255,66,14)" stroke-linejoin="round" d="M 4833,8365 L 4974,8506 5115,8365 4974,8224 4833,8365 Z"/>
 <path fill="rgb(255,66,14)" stroke="none" d="M 5598,8360 L 5739,8501 5880,8360 5739,8219 5598,8360 Z"/>
 <path fill="none" stroke="rgb(255,66,14)" stroke-linejoin="round" d="M 5598,8360 L 5739,8501 5880,8360 5739,8219 5598,8360 Z"/>
 <path fill="rgb(255,66,14)" stroke="none" d="M 6363,8354 L 6504,8495 6645,8354 6504,8213 6363,8354 Z"/>
 <path fill="none" stroke="rgb(255,66,14)" stroke-linejoin="round" d="M 6363,8354 L 6504,8495 6645,8354 6504,8213 6363,8354 Z"/>
 <path fill="rgb(255,66,14)" stroke="none" d="M 7128,8344 L 7269,8485 7410,8344 7269,8203 7128,8344 Z"/>
 <path fill="none" stroke="rgb(255,66,14)" stroke-linejoin="round" d="M 7128,8344 L 7269,8485 7410,8344 7269,8203 7128,8344 Z"/>
 <path fill="rgb(255,66,14)" stroke="none" d="M 7893,8322 L 8034,8463 8175,8322 8034,8181 7893,8322 Z"/>
 <path fill="none" stroke="rgb(255,66,14)" stroke-linejoin="round" d="M 7893,8322 L 8034,8463 8175,8322 8034,8181 7893,8322 Z"/>
 <path fill="rgb(255,66,14)" stroke="none" d="M 8658,8274 L 8799,8415 8940,8274 8799,8133 8658,8274 Z"/>
 <path fill="none" stroke="rgb(255,66,14)" stroke-linejoin="round" d="M 8658,8274 L 8799,8415 8940,8274 8799,8133 8658,8274 Z"/>
 <path fill="rgb(255,66,14)" stroke="none" d="M 9423,1220 L 9563,1361 9704,1220 9563,1079 9423,1220 Z"/>
 <path fill="none" stroke="rgb(255,66,14)" stroke-linejoin="round" d="M 9423,1220 L 9563,1361 9704,1220 9563,1079 9423,1220 Z"/>
 <path fill="rgb(255,66,14)" stroke="none" d="M 10187,7855 L 10328,7995 10469,7855 10328,7714 10187,7855 Z"/>
 <path fill="none" stroke="rgb(255,66,14)" stroke-linejoin="round" d="M 10187,7855 L 10328,7995 10469,7855 10328,7714 10187,7855 Z"/>
 <path fill="rgb(255,66,14)" stroke="none" d="M 10952,8272 L 11093,8413 11234,8272 11093,8131 10952,8272 Z"/>
 <path fill="none" stroke="rgb(255,66,14)" stroke-linejoin="round" d="M 10952,8272 L 11093,8413 11234,8272 11093,8131 10952,8272 Z"/>
 <path fill="rgb(255,66,14)" stroke="none" d="M 11717,8322 L 11858,8463 11999,8322 11858,8181 11717,8322 Z"/>
 <path fill="none" stroke="rgb(255,66,14)" stroke-linejoin="round" d="M 11717,8322 L 11858,8463 11999,8322 11858,8181 11717,8322 Z"/>
 <path fill="rgb(255,66,14)" stroke="none" d="M 12482,8343 L 12623,8484 12764,8343 12623,8202 12482,8343 Z"/>
 <path fill="none" stroke="rgb(255,66,14)" stroke-linejoin="round" d="M 12482,8343 L 12623,8484 12764,8343 12623,8202 12482,8343 Z"/>
 <path fill="rgb(255,66,14)" stroke="none" d="M 13247,8353 L 13388,8494 13529,8353 13388,8212 13247,8353 Z"/>
 <path fill="none" stroke="rgb(255,66,14)" stroke-linejoin="round" d="M 13247,8353 L 13388,8494 13529,8353 13388,8212 13247,8353 Z"/>
 <path fill="rgb(255,66,14)" stroke="none" d="M 14012,8361 L 14153,8502 14294,8361 14153,8220 14012,8361 Z"/>
 <path fill="none" stroke="rgb(255,66,14)" stroke-linejoin="round" d="M 14012,8361 L 14153,8502 14294,8361 14153,8220 14012,8361 Z"/>
 <path fill="rgb(255,66,14)" stroke="none" d="M 14777,8365 L 14918,8506 15059,8365 14918,8224 14777,8365 Z"/>
 <path fill="none" stroke="rgb(255,66,14)" stroke-linejoin="round" d="M 14777,8365 L 14918,8506 15059,8365 14918,8224 14777,8365 Z"/>
 <path fill="rgb(255,66,14)" stroke="none" d="M 15542,8369 L 15683,8510 15824,8369 15683,8228 15542,8369 Z"/>
 <path fill="none" stroke="rgb(255,66,14)" stroke-linejoin="round" d="M 15542,8369 L 15683,8510 15824,8369 15683,8228 15542,8369 Z"/>
 <path fill="rgb(255,66,14)" stroke="none" d="M 16307,8371 L 16448,8512 16589,8371 16448,8230 16307,8371 Z"/>
 <path fill="none" stroke="rgb(255,66,14)" stroke-linejoin="round" d="M 16307,8371 L 16448,8512 16589,8371 16448,8230 16307,8371 Z"/>
 <path fill="rgb(255,66,14)" stroke="none" d="M 17072,8373 L 17213,8514 17354,8373 17213,8232 17072,8373 Z"/>
 <path fill="none" stroke="rgb(255,66,14)" stroke-linejoin="round" d="M 17072,8373 L 17213,8514 17354,8373 17213,8232 17072,8373 Z"/>
 <path fill="rgb(255,66,14)" stroke="none" d="M 17837,8361 L 17978,8502 18119,8361 17978,8220 17837,8361 Z"/>
 <path fill="none" stroke="rgb(255,66,14)" stroke-linejoin="round" d="M 17837,8361 L 17978,8502 18119,8361 17978,8220 17837,8361 Z"/>
 <path fill="none" stroke="rgb(255,211,32)" stroke-width="80" stroke-linejoin="round" d="M 1914,8267 L 2679,8348 3444,8338 4209,8323 4974,8302 5739,8273 6504,8233 7269,8165 8034,8045 8799,7779 9563,6179 10328,5752 11093,7736 11858,8043 12623,8169 13388,8234 14153,8277 14918,8305 15683,8327 16448,8340 17213,8350 17978,8274"/>
 <path fill="rgb(255,211,32)" stroke="none" d="M 1773,8408 L 2055,8408 1914,8126 1773,8408 Z"/>
 <path fill="none" stroke="rgb(255,211,32)" stroke-linejoin="round" d="M 1773,8408 L 2055,8408 1914,8126 1773,8408 Z"/>
 <path fill="rgb(255,211,32)" stroke="none" d="M 2538,8489 L 2820,8489 2679,8207 2538,8489 Z"/>
 <path fill="none" stroke="rgb(255,211,32)" stroke-linejoin="round" d="M 2538,8489 L 2820,8489 2679,8207 2538,8489 Z"/>
 <path fill="rgb(255,211,32)" stroke="none" d="M 3303,8479 L 3585,8479 3444,8197 3303,8479 Z"/>
 <path fill="none" stroke="rgb(255,211,32)" stroke-linejoin="round" d="M 3303,8479 L 3585,8479 3444,8197 3303,8479 Z"/>
 <path fill="rgb(255,211,32)" stroke="none" d="M 4068,8464 L 4350,8464 4209,8182 4068,8464 Z"/>
 <path fill="none" stroke="rgb(255,211,32)" stroke-linejoin="round" d="M 4068,8464 L 4350,8464 4209,8182 4068,8464 Z"/>
 <path fill="rgb(255,211,32)" stroke="none" d="M 4833,8443 L 5115,8443 4974,8161 4833,8443 Z"/>
 <path fill="none" stroke="rgb(255,211,32)" stroke-linejoin="round" d="M 4833,8443 L 5115,8443 4974,8161 4833,8443 Z"/>
 <path fill="rgb(255,211,32)" stroke="none" d="M 5598,8414 L 5880,8414 5739,8132 5598,8414 Z"/>
 <path fill="none" stroke="rgb(255,211,32)" stroke-linejoin="round" d="M 5598,8414 L 5880,8414 5739,8132 5598,8414 Z"/>
 <path fill="rgb(255,211,32)" stroke="none" d="M 6363,8374 L 6645,8374 6504,8092 6363,8374 Z"/>
 <path fill="none" stroke="rgb(255,211,32)" stroke-linejoin="round" d="M 6363,8374 L 6645,8374 6504,8092 6363,8374 Z"/>
 <path fill="rgb(255,211,32)" stroke="none" d="M 7128,8306 L 7410,8306 7269,8024 7128,8306 Z"/>
 <path fill="none" stroke="rgb(255,211,32)" stroke-linejoin="round" d="M 7128,8306 L 7410,8306 7269,8024 7128,8306 Z"/>
 <path fill="rgb(255,211,32)" stroke="none" d="M 7893,8186 L 8175,8186 8034,7905 7893,8186 Z"/>
 <path fill="none" stroke="rgb(255,211,32)" stroke-linejoin="round" d="M 7893,8186 L 8175,8186 8034,7905 7893,8186 Z"/>
 <path fill="rgb(255,211,32)" stroke="none" d="M 8658,7920 L 8940,7920 8799,7638 8658,7920 Z"/>
 <path fill="none" stroke="rgb(255,211,32)" stroke-linejoin="round" d="M 8658,7920 L 8940,7920 8799,7638 8658,7920 Z"/>
 <path fill="rgb(255,211,32)" stroke="none" d="M 9423,6320 L 9704,6320 9563,6038 9423,6320 Z"/>
 <path fill="none" stroke="rgb(255,211,32)" stroke-linejoin="round" d="M 9423,6320 L 9704,6320 9563,6038 9423,6320 Z"/>
 <path fill="rgb(255,211,32)" stroke="none" d="M 10187,5893 L 10469,5893 10328,5611 10187,5893 Z"/>
 <path fill="none" stroke="rgb(255,211,32)" stroke-linejoin="round" d="M 10187,5893 L 10469,5893 10328,5611 10187,5893 Z"/>
 <path fill="rgb(255,211,32)" stroke="none" d="M 10952,7877 L 11234,7877 11093,7595 10952,7877 Z"/>
 <path fill="none" stroke="rgb(255,211,32)" stroke-linejoin="round" d="M 10952,7877 L 11234,7877 11093,7595 10952,7877 Z"/>
 <path fill="rgb(255,211,32)" stroke="none" d="M 11717,8184 L 11999,8184 11858,7903 11717,8184 Z"/>
 <path fill="none" stroke="rgb(255,211,32)" stroke-linejoin="round" d="M 11717,8184 L 11999,8184 11858,7903 11717,8184 Z"/>
 <path fill="rgb(255,211,32)" stroke="none" d="M 12482,8310 L 12764,8310 12623,8028 12482,8310 Z"/>
 <path fill="none" stroke="rgb(255,211,32)" stroke-linejoin="round" d="M 12482,8310 L 12764,8310 12623,8028 12482,8310 Z"/>
 <path fill="rgb(255,211,32)" stroke="none" d="M 13247,8375 L 13529,8375 13388,8093 13247,8375 Z"/>
 <path fill="none" stroke="rgb(255,211,32)" stroke-linejoin="round" d="M 13247,8375 L 13529,8375 13388,8093 13247,8375 Z"/>
 <path fill="rgb(255,211,32)" stroke="none" d="M 14012,8418 L 14294,8418 14153,8136 14012,8418 Z"/>
 <path fill="none" stroke="rgb(255,211,32)" stroke-linejoin="round" d="M 14012,8418 L 14294,8418 14153,8136 14012,8418 Z"/>
 <path fill="rgb(255,211,32)" stroke="none" d="M 14777,8446 L 15059,8446 14918,8164 14777,8446 Z"/>
 <path fill="none" stroke="rgb(255,211,32)" stroke-linejoin="round" d="M 14777,8446 L 15059,8446 14918,8164 14777,8446 Z"/>
 <path fill="rgb(255,211,32)" stroke="none" d="M 15542,8468 L 15824,8468 15683,8186 15542,8468 Z"/>
 <path fill="none" stroke="rgb(255,211,32)" stroke-linejoin="round" d="M 15542,8468 L 15824,8468 15683,8186 15542,8468 Z"/>
 <path fill="rgb(255,211,32)" stroke="none" d="M 16307,8481 L 16589,8481 16448,8199 16307,8481 Z"/>
 <path fill="none" stroke="rgb(255,211,32)" stroke-linejoin="round" d="M 16307,8481 L 16589,8481 16448,8199 16307,8481 Z"/>
 <path fill="rgb(255,211,32)" stroke="none" d="M 17072,8491 L 17354,8491 17213,8209 17072,8491 Z"/>
 <path fill="none" stroke="rgb(255,211,32)" stroke-linejoin="round" d="M 17072,8491 L 17354,8491 17213,8209 17072,8491 Z"/>
 <path fill="rgb(255,211,32)" stroke="none" d="M 17837,8415 L 18119,8415 17978,8133 17837,8415 Z"/>
 <path fill="none" stroke="rgb(255,211,32)" stroke-linejoin="round" d="M 17837,8415 L 18119,8415 17978,8133 17837,8415 Z"/>
 <path fill="none" stroke="rgb(87,157,28)" stroke-width="80" stroke-linejoin="round" d="M 1914,8360 L 2679,8373 3444,8372 4209,8370 4974,8367 5739,8363 6504,8356 7269,8346 8034,8325 8799,8272 9563,7866 10328,1189 11093,8263 11858,8325 12623,8348 13388,8355 14153,8363 14918,8366 15683,8371 16448,8373 17213,8373 17978,8361"/>
 <path fill="rgb(87,157,28)" stroke="none" d="M 1773,8501 L 2055,8501 1914,8219 1773,8501 Z"/>
 <path fill="none" stroke="rgb(87,157,28)" stroke-linejoin="round" d="M 1773,8501 L 2055,8501 1914,8219 1773,8501 Z"/>
 <path fill="rgb(87,157,28)" stroke="none" d="M 2538,8514 L 2820,8514 2679,8232 2538,8514 Z"/>
 <path fill="none" stroke="rgb(87,157,28)" stroke-linejoin="round" d="M 2538,8514 L 2820,8514 2679,8232 2538,8514 Z"/>
 <path fill="rgb(87,157,28)" stroke="none" d="M 3303,8513 L 3585,8513 3444,8231 3303,8513 Z"/>
 <path fill="none" stroke="rgb(87,157,28)" stroke-linejoin="round" d="M 3303,8513 L 3585,8513 3444,8231 3303,8513 Z"/>
 <path fill="rgb(87,157,28)" stroke="none" d="M 4068,8511 L 4350,8511 4209,8229 4068,8511 Z"/>
 <path fill="none" stroke="rgb(87,157,28)" stroke-linejoin="round" d="M 4068,8511 L 4350,8511 4209,8229 4068,8511 Z"/>
 <path fill="rgb(87,157,28)" stroke="none" d="M 4833,8508 L 5115,8508 4974,8226 4833,8508 Z"/>
 <path fill="none" stroke="rgb(87,157,28)" stroke-linejoin="round" d="M 4833,8508 L 5115,8508 4974,8226 4833,8508 Z"/>
 <path fill="rgb(87,157,28)" stroke="none" d="M 5598,8504 L 5880,8504 5739,8222 5598,8504 Z"/>
 <path fill="none" stroke="rgb(87,157,28)" stroke-linejoin="round" d="M 5598,8504 L 5880,8504 5739,8222 5598,8504 Z"/>
 <path fill="rgb(87,157,28)" stroke="none" d="M 6363,8497 L 6645,8497 6504,8215 6363,8497 Z"/>
 <path fill="none" stroke="rgb(87,157,28)" stroke-linejoin="round" d="M 6363,8497 L 6645,8497 6504,8215 6363,8497 Z"/>
 <path fill="rgb(87,157,28)" stroke="none" d="M 7128,8487 L 7410,8487 7269,8205 7128,8487 Z"/>
 <path fill="none" stroke="rgb(87,157,28)" stroke-linejoin="round" d="M 7128,8487 L 7410,8487 7269,8205 7128,8487 Z"/>
 <path fill="rgb(87,157,28)" stroke="none" d="M 7893,8466 L 8175,8466 8034,8184 7893,8466 Z"/>
 <path fill="none" stroke="rgb(87,157,28)" stroke-linejoin="round" d="M 7893,8466 L 8175,8466 8034,8184 7893,8466 Z"/>
 <path fill="rgb(87,157,28)" stroke="none" d="M 8658,8413 L 8940,8413 8799,8131 8658,8413 Z"/>
 <path fill="none" stroke="rgb(87,157,28)" stroke-linejoin="round" d="M 8658,8413 L 8940,8413 8799,8131 8658,8413 Z"/>
 <path fill="rgb(87,157,28)" stroke="none" d="M 9423,8006 L 9704,8006 9563,7725 9423,8006 Z"/>
 <path fill="none" stroke="rgb(87,157,28)" stroke-linejoin="round" d="M 9423,8006 L 9704,8006 9563,7725 9423,8006 Z"/>
 <path fill="rgb(87,157,28)" stroke="none" d="M 10187,1330 L 10469,1330 10328,1048 10187,1330 Z"/>
 <path fill="none" stroke="rgb(87,157,28)" stroke-linejoin="round" d="M 10187,1330 L 10469,1330 10328,1048 10187,1330 Z"/>
 <path fill="rgb(87,157,28)" stroke="none" d="M 10952,8404 L 11234,8404 11093,8122 10952,8404 Z"/>
 <path fill="none" stroke="rgb(87,157,28)" stroke-linejoin="round" d="M 10952,8404 L 11234,8404 11093,8122 10952,8404 Z"/>
 <path fill="rgb(87,157,28)" stroke="none" d="M 11717,8466 L 11999,8466 11858,8184 11717,8466 Z"/>
 <path fill="none" stroke="rgb(87,157,28)" stroke-linejoin="round" d="M 11717,8466 L 11999,8466 11858,8184 11717,8466 Z"/>
 <path fill="rgb(87,157,28)" stroke="none" d="M 12482,8489 L 12764,8489 12623,8207 12482,8489 Z"/>
 <path fill="none" stroke="rgb(87,157,28)" stroke-linejoin="round" d="M 12482,8489 L 12764,8489 12623,8207 12482,8489 Z"/>
 <path fill="rgb(87,157,28)" stroke="none" d="M 13247,8496 L 13529,8496 13388,8214 13247,8496 Z"/>
 <path fill="none" stroke="rgb(87,157,28)" stroke-linejoin="round" d="M 13247,8496 L 13529,8496 13388,8214 13247,8496 Z"/>
 <path fill="rgb(87,157,28)" stroke="none" d="M 14012,8504 L 14294,8504 14153,8222 14012,8504 Z"/>
 <path fill="none" stroke="rgb(87,157,28)" stroke-linejoin="round" d="M 14012,8504 L 14294,8504 14153,8222 14012,8504 Z"/>
 <path fill="rgb(87,157,28)" stroke="none" d="M 14777,8507 L 15059,8507 14918,8225 14777,8507 Z"/>
 <path fill="none" stroke="rgb(87,157,28)" stroke-linejoin="round" d="M 14777,8507 L 15059,8507 14918,8225 14777,8507 Z"/>
 <path fill="rgb(87,157,28)" stroke="none" d="M 15542,8512 L 15824,8512 15683,8230 15542,8512 Z"/>
 <path fill="none" stroke="rgb(87,157,28)" stroke-linejoin="round" d="M 15542,8512 L 15824,8512 15683,8230 15542,8512 Z"/>
 <path fill="rgb(87,157,28)" stroke="none" d="M 16307,8514 L 16589,8514 16448,8232 16307,8514 Z"/>
 <path fill="none" stroke="rgb(87,157,28)" stroke-linejoin="round" d="M 16307,8514 L 16589,8514 16448,8232 16307,8514 Z"/>
 <path fill="rgb(87,157,28)" stroke="none" d="M 17072,8514 L 17354,8514 17213,8232 17072,8514 Z"/>
 <path fill="none" stroke="rgb(87,157,28)" stroke-linejoin="round" d="M 17072,8514 L 17354,8514 17213,8232 17072,8514 Z"/>
 <path fill="rgb(87,157,28)" stroke="none" d="M 17837,8502 L 18119,8502 17978,8220 17837,8502 Z"/>
 <path fill="none" stroke="rgb(87,157,28)" stroke-linejoin="round" d="M 17837,8502 L 18119,8502 17978,8220 17837,8502 Z"/>
 <text class="TextShape"><tspan class="TextParagraph" font-family="Liberation Sans" font-size="325px" font-weight="400"><tspan class="TextPosition" x="1479" y="8484"><tspan fill="rgb(0,0,0)" stroke="none">0</tspan></tspan></tspan></text>
 <text class="TextShape"><tspan class="TextParagraph" font-family="Liberation Sans" font-size="325px" font-weight="400"><tspan class="TextPosition" x="1214" y="7661"><tspan fill="rgb(0,0,0)" stroke="none">0.1</tspan></tspan></tspan></text>
 <text class="TextShape"><tspan class="TextParagraph" font-family="Liberation Sans" font-size="325px" font-weight="400"><tspan class="TextPosition" x="1214" y="6838"><tspan fill="rgb(0,0,0)" stroke="none">0.2</tspan></tspan></tspan></text>
 <text class="TextShape"><tspan class="TextParagraph" font-family="Liberation Sans" font-size="325px" font-weight="400"><tspan class="TextPosition" x="1214" y="6015"><tspan fill="rgb(0,0,0)" stroke="none">0.3</tspan></tspan></tspan></text>
 <text class="TextShape"><tspan class="TextParagraph" font-family="Liberation Sans" font-size="325px" font-weight="400"><tspan class="TextPosition" x="1214" y="5193"><tspan fill="rgb(0,0,0)" stroke="none">0.4</tspan></tspan></tspan></text>
 <text class="TextShape"><tspan class="TextParagraph" font-family="Liberation Sans" font-size="325px" font-weight="400"><tspan class="TextPosition" x="1214" y="4370"><tspan fill="rgb(0,0,0)" stroke="none">0.5</tspan></tspan></tspan></text>
 <text class="TextShape"><tspan class="TextParagraph" font-family="Liberation Sans" font-size="325px" font-weight="400"><tspan class="TextPosition" x="1214" y="3547"><tspan fill="rgb(0,0,0)" stroke="none">0.6</tspan></tspan></tspan></text>
 <text class="TextShape"><tspan class="TextParagraph" font-family="Liberation Sans" font-size="325px" font-weight="400"><tspan class="TextPosition" x="1214" y="2724"><tspan fill="rgb(0,0,0)" stroke="none">0.7</tspan></tspan></tspan></text>
 <text class="TextShape"><tspan class="TextParagraph" font-family="Liberation Sans" font-size="325px" font-weight="400"><tspan class="TextPosition" x="1214" y="1901"><tspan fill="rgb(0,0,0)" stroke="none">0.8</tspan></tspan></tspan></text>
 <text class="TextShape"><tspan class="TextParagraph" font-family="Liberation Sans" font-size="325px" font-weight="400"><tspan class="TextPosition" x="1214" y="1078"><tspan fill="rgb(0,0,0)" stroke="none">0.9</tspan></tspan></tspan></text>
 <text class="TextShape"><tspan class="TextParagraph" font-family="Liberation Sans" font-size="325px" font-weight="400"><tspan class="TextPosition" x="1479" y="256"><tspan fill="rgb(0,0,0)" stroke="none">1</tspan></tspan></tspan></text>
 <path fill="none" stroke="rgb(0,69,134)" stroke-width="80" stroke-linejoin="round" d="M 12374,1449 L 13174,1449"/>
 <path fill="rgb(0,69,134)" stroke="none" d="M 12657,1332 L 12657,1566 12891,1566 12891,1332 12657,1332 Z"/>
 <path fill="none" stroke="rgb(0,69,134)" stroke-linejoin="round" d="M 12657,1332 L 12657,1566 12891,1566 12891,1332 12657,1332 Z"/>
 <path fill="none" stroke="rgb(255,66,14)" stroke-width="80" stroke-linejoin="round" d="M 12374,2065 L 13174,2065"/>
 <path fill="rgb(255,66,14)" stroke="none" d="M 12657,2065 L 12774,2182 12891,2065 12774,1948 12657,2065 Z"/>
 <path fill="none" stroke="rgb(255,66,14)" stroke-linejoin="round" d="M 12657,2065 L 12774,2182 12891,2065 12774,1948 12657,2065 Z"/>
 <path fill="none" stroke="rgb(255,211,32)" stroke-width="80" stroke-linejoin="round" d="M 12374,2680 L 13174,2680"/>
 <path fill="rgb(255,211,32)" stroke="none" d="M 12657,2797 L 12891,2797 12774,2564 12657,2797 Z"/>
 <path fill="none" stroke="rgb(255,211,32)" stroke-linejoin="round" d="M 12657,2797 L 12891,2797 12774,2564 12657,2797 Z"/>
 <path fill="none" stroke="rgb(87,157,28)" stroke-width="80" stroke-linejoin="round" d="M 12374,3296 L 13174,3296"/>
 <path fill="rgb(87,157,28)" stroke="none" d="M 12657,3413 L 12891,3413 12774,3179 12657,3413 Z"/>
 <path fill="none" stroke="rgb(87,157,28)" stroke-linejoin="round" d="M 12657,3413 L 12891,3413 12774,3179 12657,3413 Z"/>
 <text class="TextShape"><tspan class="TextParagraph" font-family="Liberation Sans" font-size="390px" font-weight="400"><tspan class="TextPosition" x="13274" y="1594"><tspan fill="rgb(0,0,0)" stroke="none">1 – &apos;&apos;Crazy&apos;&apos; Driver </tspan></tspan></tspan></text>
 <text class="TextShape"><tspan class="TextParagraph" font-family="Liberation Sans" font-size="390px" font-weight="400"><tspan class="TextPosition" x="13274" y="2210"><tspan fill="rgb(0,0,0)" stroke="none">2 – &apos;&apos;Eco-Braker&apos;&apos; Driver</tspan></tspan></tspan></text>
 <text class="TextShape"><tspan class="TextParagraph" font-family="Liberation Sans" font-size="390px" font-weight="400"><tspan class="TextPosition" x="13274" y="2825"><tspan fill="rgb(0,0,0)" stroke="none">3 – Normal Driver</tspan></tspan></tspan></text>
 <text class="TextShape"><tspan class="TextParagraph" font-family="Liberation Sans" font-size="390px" font-weight="400"><tspan class="TextPosition" x="13274" y="3441"><tspan fill="rgb(0,0,0)" stroke="none">4 – &apos;&apos;Eco-Accelerator&apos;&apos; </tspan></tspan><tspan class="TextPosition" x="13274" y="3891"><tspan fill="rgb(0,0,0)" stroke="none">Driver</tspan></tspan></tspan></text>
 <text class="TextShape"><tspan class="TextParagraph" font-family="Arial" font-size="423px" font-weight="700"><tspan class="TextPosition" x="6004" y="10371"><tspan fill="rgb(0,0,0)" stroke="none">Acceleration Slope Ranges (m/s³)</tspan></tspan></tspan></text>
 <text class="TextShape"><tspan class="TextParagraph" font-family="Arial" font-size="423px" font-weight="700"><tspan class="TextPosition" x="738" y="6034" transform="translate(738,6034) rotate(-90) translate(-738,-6034)"><tspan fill="rgb(0,0,0)" stroke="none">Relative Frequency</tspan></tspan></tspan></text>
</svg>